<svg width="24" height="24" viewBox="0 0 24 24" fill="none" xmlns="http://www.w3.org/2000/svg">
<path fill-rule="evenodd" clip-rule="evenodd" d="M20.774 8.09997C22.384 6.48397 22.315 4.36197 21.113 3.06197C20.8105 2.73491 20.4452 2.47228 20.0388 2.28979C19.6324 2.10731 19.1934 2.00873 18.748 1.99997C17.799 1.97797 16.817 2.33997 15.91 3.09897C15.8867 3.11827 15.8644 3.13862 15.843 3.15997L2.874 16.181C2.31368 16.7438 1.99937 17.5058 2 18.3V19.993C2 21.094 2.892 22 4.004 22H5.683C6.07789 21.9999 6.46887 21.9218 6.83353 21.7703C7.19819 21.6188 7.52934 21.3968 7.808 21.117L20.774 8.09997ZM17.207 5.79297C17.1148 5.69746 17.0044 5.62128 16.8824 5.56887C16.7604 5.51646 16.6292 5.48887 16.4964 5.48772C16.3636 5.48656 16.2319 5.51187 16.109 5.56215C15.9862 5.61243 15.8745 5.68668 15.7806 5.78057C15.6867 5.87447 15.6125 5.98612 15.5622 6.10901C15.5119 6.23191 15.4866 6.36359 15.4878 6.49637C15.4889 6.62915 15.5165 6.76037 15.5689 6.88237C15.6213 7.00438 15.6975 7.11472 15.793 7.20697L16.793 8.20697C16.8852 8.30248 16.9956 8.37866 17.1176 8.43107C17.2396 8.48348 17.3708 8.51107 17.5036 8.51222C17.6364 8.51337 17.7681 8.48807 17.891 8.43779C18.0139 8.38751 18.1255 8.31326 18.2194 8.21936C18.3133 8.12547 18.3875 8.01382 18.4378 7.89092C18.4881 7.76803 18.5134 7.63635 18.5123 7.50357C18.5111 7.37079 18.4835 7.23957 18.4311 7.11756C18.3787 6.99556 18.3025 6.88522 18.207 6.79297L17.207 5.79297Z" fill="white" fill-opacity="0.5"/>
</svg>
