<svg width="84" height="86" viewBox="0 0 84 86" fill="none" xmlns="http://www.w3.org/2000/svg">
<path d="M82.9427 39.39L77.6093 34.0566C77.4856 33.9328 77.3386 33.8346 77.1768 33.7675C77.0151 33.7005 76.8417 33.666 76.6666 33.666C76.4915 33.666 76.3182 33.7005 76.1564 33.7675C75.9947 33.8346 75.8477 33.9328 75.7239 34.0566L70.3906 39.39C70.2667 39.5137 70.1685 39.6607 70.1015 39.8224C70.0345 39.9842 70 40.1576 70 40.3326V53.666C70 53.8411 70.0344 54.0145 70.1014 54.1763C70.1684 54.3381 70.2666 54.4851 70.3904 54.6089C70.5142 54.7327 70.6612 54.8309 70.823 54.8979C70.9848 54.9649 71.1582 54.9994 71.3333 54.9993H82C82.1751 54.9994 82.3485 54.9649 82.5103 54.8979C82.6721 54.8309 82.8191 54.7327 82.9429 54.6089C83.0667 54.4851 83.1649 54.3381 83.2319 54.1763C83.2989 54.0145 83.3334 53.8411 83.3333 53.666V40.3326C83.3333 40.1576 83.2989 39.9842 83.2318 39.8224C83.1648 39.6607 83.0665 39.5137 82.9427 39.39Z" fill="white"/>
<path d="M59.3333 22.9993H19.3333C19.1582 22.9992 18.9848 23.0337 18.823 23.1007C18.6612 23.1677 18.5142 23.2659 18.3904 23.3897C18.2666 23.5135 18.1684 23.6605 18.1014 23.8223C18.0344 23.9841 18 24.1575 18 24.3326V44.3326C17.9999 44.5864 18.0723 44.8349 18.2086 45.0489C18.345 45.263 18.5396 45.4337 18.7695 45.5409L38.7695 54.8743C38.9461 54.9566 39.1385 54.9993 39.3333 54.9993C39.5281 54.9993 39.7206 54.9566 39.8971 54.8743L59.8971 45.5409C60.1271 45.4337 60.3217 45.263 60.458 45.0489C60.5943 44.8349 60.6667 44.5864 60.6667 44.3326V24.3326C60.6667 24.1575 60.6323 23.9841 60.5653 23.8223C60.4983 23.6605 60.4001 23.5135 60.2762 23.3897C60.1524 23.2659 60.0054 23.1677 59.8436 23.1007C59.6818 23.0337 59.5084 22.9992 59.3333 22.9993Z" fill="white"/>
<path d="M59.3333 22.9993H19.3333C19.1582 22.9992 18.9848 23.0337 18.823 23.1007C18.6612 23.1677 18.5142 23.2659 18.3904 23.3897C18.2666 23.5135 18.1684 23.6605 18.1014 23.8223C18.0344 23.9841 18 24.1575 18 24.3326V37.1823L38.7695 46.8743C38.9461 46.9566 39.1385 46.9993 39.3333 46.9993C39.5281 46.9993 39.7206 46.9566 39.8971 46.8743L60.6667 37.1821V24.3326C60.6667 24.1575 60.6323 23.9841 60.5653 23.8223C60.4983 23.6605 60.4001 23.5135 60.2762 23.3897C60.1524 23.2659 60.0054 23.1677 59.8436 23.1007C59.6818 23.0337 59.5084 22.9992 59.3333 22.9993Z" fill="white"/>
<path d="M77.2282 17.7896L39.8949 0.456296C39.7189 0.375229 39.5274 0.333252 39.3337 0.333252C39.1399 0.333252 38.9484 0.375229 38.7725 0.456296L1.43913 17.7896C1.2085 17.8967 1.01328 18.0674 0.876481 18.2817C0.739677 18.496 0.666992 18.745 0.666992 18.9993C0.666992 19.2535 0.739677 19.5025 0.876481 19.7168C1.01328 19.9311 1.2085 20.1019 1.43913 20.2089L38.7725 37.5422C38.9483 37.6237 39.1398 37.6659 39.3337 37.6659C39.5275 37.6659 39.719 37.6237 39.8949 37.5422L77.2282 20.2089C77.4588 20.1019 77.654 19.9311 77.7908 19.7168C77.9277 19.5025 78.0003 19.2535 78.0003 18.9993C78.0003 18.745 77.9277 18.496 77.7908 18.2817C77.654 18.0674 77.4588 17.8967 77.2282 17.7896Z" fill="white"/>
<path d="M76.6667 30.9993C76.4916 30.9994 76.3182 30.9649 76.1564 30.8979C75.9946 30.831 75.8476 30.7327 75.7238 30.6089C75.5999 30.4851 75.5017 30.3381 75.4347 30.1763C75.3677 30.0145 75.3333 29.8411 75.3333 29.666V20.3327H39.3333C38.9797 20.3327 38.6406 20.1922 38.3905 19.9422C38.1405 19.6921 38 19.353 38 18.9993C38 18.6457 38.1405 18.3066 38.3905 18.0565C38.6406 17.8065 38.9797 17.666 39.3333 17.666H76.6667C76.8418 17.666 77.0152 17.7004 77.177 17.7674C77.3388 17.8344 77.4858 17.9326 77.6096 18.0564C77.7334 18.1803 77.8316 18.3273 77.8986 18.4891C77.9656 18.6508 78 18.8242 78 18.9993V29.666C78 29.8411 77.9656 30.0145 77.8986 30.1763C77.8316 30.3381 77.7334 30.4851 77.6096 30.6089C77.4858 30.7327 77.3388 30.831 77.177 30.8979C77.0152 30.9649 76.8418 30.9994 76.6667 30.9993Z" fill="white"/>
<path d="M76.6673 38.9993C79.6128 38.9993 82.0007 36.6115 82.0007 33.666C82.0007 30.7205 79.6128 28.3326 76.6673 28.3326C73.7218 28.3326 71.334 30.7205 71.334 33.666C71.334 36.6115 73.7218 38.9993 76.6673 38.9993Z" fill="white"/>
<path d="M65.6973 80.2858C63.9115 79.7988 62 75.4147 62 69.666C62 63.9173 63.9115 59.5332 65.6973 59.0462C66.0254 58.9566 66.3069 58.7451 66.4842 58.4548C66.6615 58.1646 66.7212 57.8176 66.6511 57.4847C66.581 57.1519 66.3864 56.8585 66.1071 56.6644C65.8278 56.4703 65.4849 56.3903 65.1485 56.4407L39.3333 60.3183L13.5098 56.4394L12.8561 56.3457C12.7934 56.3368 12.73 56.3324 12.6667 56.3326C8.86588 56.3326 6 62.0644 6 69.666C6 77.2675 8.86588 82.9993 12.6667 82.9993C12.73 82.9995 12.7934 82.9952 12.8561 82.9863L39.3333 79.0136L65.1484 82.8913C65.4848 82.9417 65.8277 82.8617 66.107 82.6676C66.3863 82.4736 66.5809 82.1801 66.651 81.8473C66.7212 81.5145 66.6615 81.1675 66.4842 80.8772C66.3069 80.587 66.0254 80.3753 65.6973 80.2858Z" fill="white"/>
<path d="M44.6673 57.666H34.0007C33.2937 57.6668 32.6158 57.948 32.1159 58.448C31.616 58.9479 31.3348 59.6257 31.334 60.3327V84.3327C31.334 84.5506 31.3874 84.7652 31.4896 84.9577C31.5917 85.1502 31.7395 85.3147 31.9199 85.4369C32.1004 85.559 32.308 85.6352 32.5247 85.6585C32.7413 85.6819 32.9604 85.6518 33.1628 85.571L39.334 83.1022L45.5052 85.571C45.7076 85.6518 45.9266 85.6819 46.1433 85.6585C46.36 85.6352 46.5676 85.559 46.748 85.4369C46.9285 85.3147 47.0762 85.1502 47.1784 84.9577C47.2805 84.7652 47.3339 84.5506 47.334 84.3327V60.3327C47.3332 59.6257 47.052 58.9479 46.552 58.448C46.0521 57.948 45.3743 57.6668 44.6673 57.666Z" fill="white"/>
<path d="M66.0007 56.3326C65.9373 56.3324 65.874 56.3368 65.8112 56.3457L65.1576 56.4394C65.1031 56.4474 65.0492 56.4588 64.9961 56.4733C61.6621 57.3834 59.334 62.8079 59.334 69.666C59.334 76.524 61.6621 81.9485 64.9961 82.8587C65.0492 82.8732 65.1031 82.8845 65.1576 82.8925L65.8112 82.9863C65.874 82.9952 65.9373 82.9995 66.0007 82.9993C69.8014 82.9993 72.6673 77.2675 72.6673 69.666C72.6673 62.0644 69.8014 56.3326 66.0007 56.3326Z" fill="white"/>
<path d="M63.334 68.3326H59.3652C59.3454 68.7706 59.334 69.2147 59.334 69.666C59.334 76.524 61.6621 81.9485 64.9961 82.8587C65.0492 82.8732 65.1031 82.8845 65.1576 82.8925L65.8112 82.9863C65.874 82.9952 65.9373 82.9995 66.0007 82.9993C66.4564 82.9976 66.9082 82.9135 67.334 82.7509V72.3326C67.3328 71.2721 66.911 70.2554 66.1611 69.5055C65.4112 68.7556 64.3945 68.3338 63.334 68.3326Z" fill="white"/>
</svg>
