<svg width="939" height="211" viewBox="0 0 939 211" fill="none" xmlns="http://www.w3.org/2000/svg">
<path opacity="0.36" d="M76.4694 15.5C43.2869 24.0036 6.8244 84.9276 1.16759 94.6837C0.65194 95.573 0.413086 96.5144 0.413086 97.5424V210.5H931.207C931.207 210.5 947.914 169.557 931.207 146.5C920.191 131.298 917.898 134.629 892.168 127.5C867.581 120.688 874.488 120.4 848.872 115C794.319 103.5 841.078 44.9999 794.319 44.9999C741.306 44.9999 774.402 180 718.983 174.5C657.538 168.402 673.96 13.2938 649.71 5.99994C627.998 -0.530521 627.943 42.2904 605.548 48C565.429 58.2284 570.708 -9.34585 531.078 1.49997C506.996 8.0908 499.039 30.5 473.927 29C452.928 27.7456 440.669 39.0258 422.838 32.5C400.852 24.4534 413.094 -2.89432 388.201 1.5C314.267 14.5514 380.739 106.949 306.805 120C281.911 124.394 272.497 194.707 249.654 187.5C217.86 177.469 223.431 96.5305 191.637 86.5C168.794 79.2932 157.996 151.952 134.486 145.5C95.1537 134.706 132.254 70.2944 92.9219 59.5C69.4117 53.0479 100.262 9.40274 76.4694 15.5Z" fill="url(#paint0_linear_303_583)"/>
<defs>
<linearGradient id="paint0_linear_303_583" x1="0.413086" y1="20.4997" x2="0.413087" y2="193" gradientUnits="userSpaceOnUse">
<stop stop-color="#F59121"/>
<stop offset="1" stop-color="#822776" stop-opacity="0"/>
</linearGradient>
</defs>
</svg>
